<svg width="200" height="200" viewBox="0 0 200 200" fill="none" xmlns="http://www.w3.org/2000/svg">
  <rect width="200" height="200" rx="24" fill="white"/>
  <rect x="0" y="0" width="200" height="200" rx="24" fill="url(#paint0_linear_ed)" fill-opacity="0.05"/>
  
  <!-- Screen -->
  <rect x="40" y="80" width="120" height="80" rx="8" fill="#7C3AED"/>
  <rect x="48" y="88" width="104" height="64" rx="4" fill="#F5F3FF"/>
  
  <!-- Graduation Cap -->
  <path d="M100 40L160 65L100 90L40 65L100 40Z" fill="#4C1D95"/>
  <path d="M60 75V95C60 95 80 105 100 105C120 105 140 95 140 95V75" fill="#4C1D95"/>
  <rect x="155" y="65" width="4" height="25" fill="#DDD6FE"/>
  <circle cx="157" cy="90" r="5" fill="#C4B5FD"/>

  <!-- Digital Circles -->
  <circle cx="120" cy="130" r="12" fill="#8B5CF6" fill-opacity="0.2"/>
  <circle cx="80" cy="120" r="8" fill="#8B5CF6" fill-opacity="0.1"/>

  <defs>
    <linearGradient id="paint0_linear_ed" x1="0" y1="0" x2="200" y2="200" gradientUnits="userSpaceOnUse">
      <stop stop-color="#8B5CF6"/>
      <stop offset="1" stop-color="#4F46E5"/>
    </linearGradient>
  </defs>
</svg>
