<svg width="200" height="200" viewBox="0 0 200 200" fill="none" xmlns="http://www.w3.org/2000/svg">
  <rect width="200" height="200" rx="24" fill="white"/>
  <rect x="0" y="0" width="200" height="200" rx="24" fill="url(#paint0_linear_ps)" fill-opacity="0.05"/>
  
  <!-- Dashboard Card -->
  <rect x="40" y="50" width="120" height="110" rx="12" fill="#D97706"/>
  <rect x="50" y="60" width="100" height="90" rx="6" fill="#FEF3C7"/>
  
  <!-- Strategy Chart -->
  <rect x="65" y="115" width="12" height="20" rx="2" fill="#D97706"/>
  <rect x="85" y="95" width="12" height="40" rx="2" fill="#B45309"/>
  <rect x="105" y="105" width="12" height="30" rx="2" fill="#D97706"/>
  <rect x="125" y="85" width="12" height="50" rx="2" fill="#B45309"/>

  <!-- Document Icon -->
  <rect x="130" y="30" width="40" height="50" rx="4" fill="white" stroke="#D97706" stroke-width="2"/>
  <line x1="140" y1="45" x2="160" y2="45" stroke="#D97706" stroke-width="2"/>
  <line x1="140" y1="55" x2="160" y2="55" stroke="#D97706" stroke-width="2"/>
  <line x1="140" y1="65" x2="155" y2="65" stroke="#D97706" stroke-width="2"/>

  <defs>
    <linearGradient id="paint0_linear_ps" x1="0" y1="0" x2="200" y2="200" gradientUnits="userSpaceOnUse">
      <stop stop-color="#F59E0B"/>
      <stop offset="1" stop-color="#4338CA"/>
    </linearGradient>
  </defs>
</svg>
